<svg width="40" height="40" viewBox="0 0 40 40" fill="none" xmlns="http://www.w3.org/2000/svg">
<path d="M18.3333 6.66663H6.66668C5.78262 6.66663 4.93478 7.01782 4.30965 7.64294C3.68453 8.26806 3.33334 9.1159 3.33334 9.99996V33.3333C3.33334 34.2173 3.68453 35.0652 4.30965 35.6903C4.93478 36.3154 5.78262 36.6666 6.66668 36.6666H30C30.8841 36.6666 31.7319 36.3154 32.357 35.6903C32.9822 35.0652 33.3333 34.2173 33.3333 33.3333V21.6666" stroke="black" stroke-width="3.33333" stroke-linecap="round" stroke-linejoin="round"/>
<path d="M30.8333 4.16664C31.4964 3.5036 32.3957 3.1311 33.3333 3.1311C34.271 3.1311 35.1703 3.5036 35.8333 4.16664C36.4964 4.82968 36.8689 5.72896 36.8689 6.66664C36.8689 7.60432 36.4964 8.5036 35.8333 9.16664L20 25L13.3333 26.6666L15 20L30.8333 4.16664Z" stroke="black" stroke-width="3.33333" stroke-linecap="round" stroke-linejoin="round"/>
</svg>
