<svg width="29" height="29" viewBox="0 0 29 29" fill="none" xmlns="http://www.w3.org/2000/svg">
<path d="M14.5 29C11.6322 29 8.82874 28.1496 6.44423 26.5563C4.05972 24.963 2.20122 22.6984 1.10375 20.0489C0.00627585 17.3994 -0.280872 14.4839 0.278614 11.6712C0.8381 8.85846 2.21909 6.27481 4.24695 4.24695C6.27481 2.21909 8.85847 0.838098 11.6712 0.278613C14.4839 -0.280872 17.3994 0.00627648 20.0489 1.10375C22.6984 2.20122 24.963 4.05972 26.5563 6.44423C28.1496 8.82875 29 11.6322 29 14.5L23.2 14.5C23.2 12.7793 22.6898 11.0972 21.7338 9.66654C20.7778 8.23583 19.4191 7.12073 17.8293 6.46225C16.2396 5.80377 14.4903 5.63148 12.8027 5.96717C11.1151 6.30286 9.56489 7.13145 8.34817 8.34817C7.13145 9.56489 6.30286 11.1151 5.96717 12.8027C5.63148 14.4903 5.80376 16.2396 6.46225 17.8293C7.12073 19.4191 8.23583 20.7778 9.66654 21.7338C11.0972 22.6898 12.7793 23.2 14.5 23.2L14.5 29Z" fill="url(#paint0_linear_8_4)"/>
<path d="M29 29C29 25.1544 27.4723 21.4662 24.753 18.747C22.0338 16.0277 18.3456 14.5 14.5 14.5V20.3C16.8074 20.3 19.0203 21.2166 20.6518 22.8482C22.2834 24.4797 23.2 26.6926 23.2 29H29Z" fill="url(#paint1_linear_8_4)"/>
<defs>
<linearGradient id="paint0_linear_8_4" x1="-9.5" y1="-3.5" x2="39" y2="45.5" gradientUnits="userSpaceOnUse">
<stop stop-color="#0066FF"/>
<stop offset="1" stop-color="#FA00FF"/>
</linearGradient>
<linearGradient id="paint1_linear_8_4" x1="33.75" y1="12.75" x2="9.5" y2="37.25" gradientUnits="userSpaceOnUse">
<stop stop-color="#0066FF"/>
<stop offset="1" stop-color="#FA00FF"/>
</linearGradient>
</defs>
</svg>
